<svg xmlns="http://www.w3.org/2000/svg" viewBox="0 0 285.23 282.04"><defs><style>.cls-1{fill:#2f6568;}.cls-2{fill:#e57e5e;}</style></defs><title>Asset 5</title><g id="Layer_2" data-name="Layer 2"><g id="OBJECTS"><path class="cls-1" d="M107.15,140a94,94,0,0,0-5.07,10.38l51.47-51.48A93.9,93.9,0,0,0,143.18,104Z"/><path class="cls-1" d="M96.59,168.54q-.61,3.12-1,6.32l82.48-82.48c-2.13.27-4.23.61-6.32,1Z"/><path class="cls-1" d="M94.84,188.29q0,2.57.21,5.1L196.58,91.85q-2.54-.16-5.1-.21Z"/><path class="cls-1" d="M96.48,204.65c.28,1.46.59,2.92.93,4.37l114.8-114.8c-1.44-.34-2.9-.65-4.37-.93Z"/><path class="cls-1" d="M100.32,218.81c.46,1.3.94,2.58,1.46,3.84L225.85,98.58c-1.27-.51-2.55-1-3.84-1.46Z"/><path class="cls-1" d="M105.81,231.32c.61,1.15,1.24,2.28,1.89,3.41L237.92,104.51c-1.12-.65-2.26-1.28-3.41-1.89Z"/><path class="cls-1" d="M112.7,242.43c.74,1,1.49,2,2.27,3L248.65,111.78q-1.49-1.17-3-2.28Z"/><path class="cls-1" d="M255.48,117.65,120.84,252.28c.86.91,1.74,1.8,2.63,2.68L258.15,120.28C257.28,119.38,256.39,118.51,255.48,117.65Z"/><path class="cls-1" d="M130.19,260.94c1,.79,2,1.57,3,2.32L266.45,130c-.75-1-1.53-2-2.32-3Z"/><path class="cls-1" d="M140.75,268.37c1.11.67,2.23,1.32,3.36,1.94l129.4-129.39c-.63-1.13-1.27-2.26-1.94-3.36Z"/><path class="cls-1" d="M152.64,274.48c1.25.53,2.51,1,3.79,1.52L279.19,153.23c-.48-1.27-1-2.53-1.52-3.78Z"/><path class="cls-1" d="M166.06,279.06c1.42.37,2.85.71,4.29,1L283.26,167.16c-.3-1.44-.63-2.88-1-4.3Z"/><path class="cls-1" d="M181.4,281.72c1.65.15,3.31.26,5,.32l98.85-98.85c-.06-1.67-.17-3.33-.32-5Z"/><path class="cls-1" d="M199.46,281.66c2.06-.21,4.09-.48,6.11-.81l78.48-78.48q.49-3,.8-6.1Z"/><path class="cls-1" d="M222.76,276.36a92.93,92.93,0,0,0,9.27-4l43.55-43.55a95,95,0,0,0,4-9.27Z"/><path class="cls-2" d="M12.31,48.34A94.72,94.72,0,0,0,7.24,58.71L58.71,7.24a94.72,94.72,0,0,0-10.37,5.07Z"/><path class="cls-2" d="M1.75,76.9C1.35,79,1,81.09.73,83.22L83.22.73c-2.13.27-4.24.62-6.32,1Z"/><path class="cls-2" d="M0,96.65c0,1.71.09,3.4.21,5.09L101.74.21C100.05.09,98.36,0,96.65,0Z"/><path class="cls-2" d="M1.64,113c.28,1.47.59,2.93.94,4.37L117.37,2.58c-1.44-.35-2.9-.66-4.37-.94Z"/><path class="cls-2" d="M5.48,127.17c.46,1.29.94,2.57,1.46,3.84L131,6.94c-1.27-.52-2.55-1-3.84-1.46Z"/><path class="cls-2" d="M11,139.67c.61,1.15,1.24,2.29,1.89,3.41L143.08,12.86c-1.12-.65-2.26-1.28-3.41-1.89Z"/><path class="cls-2" d="M17.86,150.78c.74,1,1.49,2,2.27,3L153.81,20.13c-1-.78-2-1.53-3-2.27Z"/><path class="cls-2" d="M160.64,26,26,160.64c.86.91,1.74,1.8,2.63,2.67L163.31,28.63C162.44,27.74,161.55,26.86,160.64,26Z"/><path class="cls-2" d="M35.35,169.29c1,.79,2,1.57,3,2.33L171.62,38.33c-.76-1-1.54-2-2.33-3Z"/><path class="cls-2" d="M45.91,176.73c1.11.67,2.23,1.31,3.37,1.94L178.67,49.28c-.63-1.14-1.27-2.26-1.94-3.37Z"/><path class="cls-2" d="M57.8,182.83c1.25.54,2.51,1,3.79,1.52L184.35,61.59c-.48-1.28-1-2.54-1.52-3.79Z"/><path class="cls-2" d="M71.22,187.42c1.42.37,2.85.7,4.3,1L188.43,75.52c-.31-1.45-.64-2.88-1-4.3Z"/><path class="cls-2" d="M86.56,190.08c1.65.14,3.31.25,5,.31l98.84-98.84c-.06-1.68-.17-3.34-.31-5Z"/><path class="cls-2" d="M104.63,190c2.05-.2,4.09-.47,6.1-.8l78.48-78.48c.33-2,.6-4,.8-6.1Z"/><path class="cls-2" d="M127.92,184.71a95.27,95.27,0,0,0,9.27-4l43.56-43.56a95.27,95.27,0,0,0,4-9.27Z"/></g></g></svg>