<svg xmlns="http://www.w3.org/2000/svg" xmlns:xlink="http://www.w3.org/1999/xlink" viewBox="0 0 834.14 833.77"><defs><style>.cls-1{fill:url(#linear-gradient);}.cls-2{fill:url(#linear-gradient-2);}.cls-3{fill:url(#linear-gradient-3);}.cls-4{fill:url(#linear-gradient-4);}.cls-5{fill:url(#linear-gradient-5);}.cls-6{fill:url(#linear-gradient-6);}.cls-7{fill:url(#linear-gradient-7);}.cls-8{fill:url(#linear-gradient-8);}.cls-9{fill:url(#linear-gradient-9);}.cls-10{fill:url(#linear-gradient-10);}.cls-11{fill:url(#linear-gradient-11);}.cls-12{fill:url(#linear-gradient-12);}.cls-13{fill:url(#linear-gradient-13);}.cls-14{fill:url(#linear-gradient-14);}.cls-15{fill:url(#linear-gradient-15);}.cls-16{fill:url(#linear-gradient-16);}.cls-17{fill:url(#linear-gradient-17);}.cls-18{fill:url(#linear-gradient-18);}.cls-19{fill:url(#linear-gradient-19);}.cls-20{fill:url(#linear-gradient-20);}.cls-21{fill:url(#linear-gradient-21);}.cls-22{fill:url(#linear-gradient-22);}.cls-23{fill:url(#linear-gradient-23);}.cls-24{fill:url(#linear-gradient-24);}.cls-25{fill:url(#linear-gradient-25);}.cls-26{fill:url(#linear-gradient-26);}.cls-27{fill:url(#linear-gradient-27);}.cls-28{fill:url(#linear-gradient-28);}.cls-29{fill:url(#linear-gradient-29);}.cls-30{fill:url(#linear-gradient-30);}.cls-31{fill:url(#linear-gradient-31);}.cls-32{fill:url(#linear-gradient-32);}.cls-33{fill:url(#linear-gradient-33);}.cls-34{fill:url(#linear-gradient-34);}.cls-35{fill:url(#linear-gradient-35);}.cls-36{fill:url(#linear-gradient-36);}.cls-37{fill:url(#linear-gradient-37);}.cls-38{fill:url(#linear-gradient-38);}.cls-39{fill:url(#linear-gradient-39);}.cls-40{fill:url(#linear-gradient-40);}.cls-41{fill:url(#linear-gradient-41);}.cls-42{fill:url(#linear-gradient-42);}.cls-43{fill:url(#linear-gradient-43);}.cls-44{fill:url(#linear-gradient-44);}.cls-45{opacity:0.5;}.cls-46{fill:url(#linear-gradient-45);}.cls-47{fill:url(#linear-gradient-46);}.cls-48{fill:url(#linear-gradient-47);}.cls-49{fill:url(#linear-gradient-48);}.cls-50{fill:url(#linear-gradient-49);}.cls-51{fill:url(#linear-gradient-50);}.cls-52{fill:url(#linear-gradient-51);}.cls-53{fill:url(#linear-gradient-52);}.cls-54{fill:url(#linear-gradient-53);}.cls-55{fill:url(#linear-gradient-54);}.cls-56{fill:url(#linear-gradient-55);}.cls-57{fill:url(#linear-gradient-56);}.cls-58{fill:url(#linear-gradient-57);}.cls-59{fill:url(#linear-gradient-58);}.cls-60{fill:url(#linear-gradient-59);}.cls-61{fill:url(#linear-gradient-60);}.cls-62{fill:url(#linear-gradient-61);}.cls-63{fill:url(#linear-gradient-62);}.cls-64{fill:url(#linear-gradient-63);}.cls-65{fill:url(#linear-gradient-64);}.cls-66{fill:url(#linear-gradient-65);}.cls-67{fill:url(#linear-gradient-66);}</style><linearGradient id="linear-gradient" x1="182.15" y1="476.84" x2="0" y2="476.84" gradientUnits="userSpaceOnUse"><stop offset="0" stop-color="#ff7c4a"/><stop offset="1" stop-color="#162936"/></linearGradient><linearGradient id="linear-gradient-2" x1="197.03" y1="472.17" x2="4.42" y2="472.17" xlink:href="#linear-gradient"/><linearGradient id="linear-gradient-3" x1="207.18" y1="471.28" x2="9.48" y2="471.28" xlink:href="#linear-gradient"/><linearGradient id="linear-gradient-4" x1="215.86" y1="471.57" x2="14.55" y2="471.57" xlink:href="#linear-gradient"/><linearGradient id="linear-gradient-5" x1="223.68" y1="472.54" x2="19.62" y2="472.54" xlink:href="#linear-gradient"/><linearGradient id="linear-gradient-6" x1="230.9" y1="473.99" x2="24.68" y2="473.99" xlink:href="#linear-gradient"/><linearGradient id="linear-gradient-7" x1="237.63" y1="475.74" x2="29.75" y2="475.74" xlink:href="#linear-gradient"/><linearGradient id="linear-gradient-8" x1="243.96" y1="477.82" x2="34.82" y2="477.82" xlink:href="#linear-gradient"/><linearGradient id="linear-gradient-9" x1="249.92" y1="480.2" x2="39.88" y2="480.2" xlink:href="#linear-gradient"/><linearGradient id="linear-gradient-10" x1="255.56" y1="482.86" x2="44.95" y2="482.86" xlink:href="#linear-gradient"/><linearGradient id="linear-gradient-11" x1="260.89" y1="485.76" x2="50.01" y2="485.76" xlink:href="#linear-gradient"/><linearGradient id="linear-gradient-12" x1="265.92" y1="488.91" x2="55.08" y2="488.91" xlink:href="#linear-gradient"/><linearGradient id="linear-gradient-13" x1="270.65" y1="492.29" x2="60.15" y2="492.29" xlink:href="#linear-gradient"/><linearGradient id="linear-gradient-14" x1="275.07" y1="495.92" x2="65.21" y2="495.92" xlink:href="#linear-gradient"/><linearGradient id="linear-gradient-15" x1="279.14" y1="499.81" x2="70.28" y2="499.81" xlink:href="#linear-gradient"/><linearGradient id="linear-gradient-16" x1="282.85" y1="503.99" x2="75.35" y2="503.99" xlink:href="#linear-gradient"/><linearGradient id="linear-gradient-17" x1="286.12" y1="508.49" x2="80.41" y2="508.49" xlink:href="#linear-gradient"/><linearGradient id="linear-gradient-18" x1="288.91" y1="513.38" x2="85.48" y2="513.38" xlink:href="#linear-gradient"/><linearGradient id="linear-gradient-19" x1="291.02" y1="518.75" x2="90.55" y2="518.75" xlink:href="#linear-gradient"/><linearGradient id="linear-gradient-20" x1="292.18" y1="524.81" x2="95.61" y2="524.81" xlink:href="#linear-gradient"/><linearGradient id="linear-gradient-21" x1="291.99" y1="532.04" x2="100.68" y2="532.04" xlink:href="#linear-gradient"/><linearGradient id="linear-gradient-22" x1="287.24" y1="542.85" x2="105.74" y2="542.85" xlink:href="#linear-gradient"/><linearGradient id="linear-gradient-23" x1="306.18" y1="128.16" x2="195.62" y2="128.16" xlink:href="#linear-gradient"/><linearGradient id="linear-gradient-24" x1="303.5" y1="130.99" x2="186.59" y2="130.99" xlink:href="#linear-gradient"/><linearGradient id="linear-gradient-25" x1="300.42" y1="131.53" x2="180.43" y2="131.53" xlink:href="#linear-gradient"/><linearGradient id="linear-gradient-26" x1="297.35" y1="131.35" x2="175.16" y2="131.35" xlink:href="#linear-gradient"/><linearGradient id="linear-gradient-27" x1="294.27" y1="130.76" x2="170.41" y2="130.76" xlink:href="#linear-gradient"/><linearGradient id="linear-gradient-28" x1="291.2" y1="129.88" x2="166.03" y2="129.88" xlink:href="#linear-gradient"/><linearGradient id="linear-gradient-29" x1="288.12" y1="128.82" x2="161.94" y2="128.82" xlink:href="#linear-gradient"/><linearGradient id="linear-gradient-30" x1="285.05" y1="127.56" x2="158.1" y2="127.56" xlink:href="#linear-gradient"/><linearGradient id="linear-gradient-31" x1="281.97" y1="126.11" x2="154.48" y2="126.11" xlink:href="#linear-gradient"/><linearGradient id="linear-gradient-32" x1="278.9" y1="124.5" x2="151.06" y2="124.5" xlink:href="#linear-gradient"/><linearGradient id="linear-gradient-33" x1="275.82" y1="122.74" x2="147.82" y2="122.74" xlink:href="#linear-gradient"/><linearGradient id="linear-gradient-34" x1="272.75" y1="120.83" x2="144.77" y2="120.83" xlink:href="#linear-gradient"/><linearGradient id="linear-gradient-35" x1="269.67" y1="118.78" x2="141.9" y2="118.78" xlink:href="#linear-gradient"/><linearGradient id="linear-gradient-36" x1="266.6" y1="116.58" x2="139.22" y2="116.58" xlink:href="#linear-gradient"/><linearGradient id="linear-gradient-37" x1="263.52" y1="114.21" x2="136.75" y2="114.21" xlink:href="#linear-gradient"/><linearGradient id="linear-gradient-38" x1="260.45" y1="111.68" x2="134.5" y2="111.68" xlink:href="#linear-gradient"/><linearGradient id="linear-gradient-39" x1="257.37" y1="108.95" x2="132.51" y2="108.95" xlink:href="#linear-gradient"/><linearGradient id="linear-gradient-40" x1="254.3" y1="105.98" x2="130.82" y2="105.98" xlink:href="#linear-gradient"/><linearGradient id="linear-gradient-41" x1="251.22" y1="102.72" x2="129.54" y2="102.72" xlink:href="#linear-gradient"/><linearGradient id="linear-gradient-42" x1="248.15" y1="99.04" x2="128.83" y2="99.04" xlink:href="#linear-gradient"/><linearGradient id="linear-gradient-43" x1="245.07" y1="94.65" x2="128.95" y2="94.65" xlink:href="#linear-gradient"/><linearGradient id="linear-gradient-44" x1="242" y1="88.09" x2="131.83" y2="88.09" xlink:href="#linear-gradient"/><linearGradient id="linear-gradient-45" x1="692.56" y1="562.11" x2="458.2" y2="562.11" xlink:href="#linear-gradient"/><linearGradient id="linear-gradient-46" x1="711.71" y1="556.1" x2="463.89" y2="556.1" xlink:href="#linear-gradient"/><linearGradient id="linear-gradient-47" x1="724.77" y1="554.96" x2="470.4" y2="554.96" xlink:href="#linear-gradient"/><linearGradient id="linear-gradient-48" x1="735.94" y1="555.33" x2="476.92" y2="555.33" xlink:href="#linear-gradient"/><linearGradient id="linear-gradient-49" x1="746" y1="556.58" x2="483.44" y2="556.58" xlink:href="#linear-gradient"/><linearGradient id="linear-gradient-50" x1="755.29" y1="558.45" x2="489.96" y2="558.45" xlink:href="#linear-gradient"/><linearGradient id="linear-gradient-51" x1="763.95" y1="560.7" x2="496.48" y2="560.7" xlink:href="#linear-gradient"/><linearGradient id="linear-gradient-52" x1="772.09" y1="563.38" x2="503" y2="563.38" xlink:href="#linear-gradient"/><linearGradient id="linear-gradient-53" x1="779.77" y1="566.44" x2="509.52" y2="566.44" xlink:href="#linear-gradient"/><linearGradient id="linear-gradient-54" x1="787.02" y1="569.85" x2="516.03" y2="569.85" xlink:href="#linear-gradient"/><linearGradient id="linear-gradient-55" x1="793.88" y1="573.59" x2="522.55" y2="573.59" xlink:href="#linear-gradient"/><linearGradient id="linear-gradient-56" x1="800.35" y1="577.63" x2="529.07" y2="577.63" xlink:href="#linear-gradient"/><linearGradient id="linear-gradient-57" x1="806.44" y1="581.99" x2="535.59" y2="581.99" xlink:href="#linear-gradient"/><linearGradient id="linear-gradient-58" x1="812.12" y1="586.65" x2="542.11" y2="586.65" xlink:href="#linear-gradient"/><linearGradient id="linear-gradient-59" x1="817.36" y1="591.66" x2="548.63" y2="591.66" xlink:href="#linear-gradient"/><linearGradient id="linear-gradient-60" x1="822.12" y1="597.04" x2="555.15" y2="597.04" xlink:href="#linear-gradient"/><linearGradient id="linear-gradient-61" x1="826.34" y1="602.83" x2="561.66" y2="602.83" xlink:href="#linear-gradient"/><linearGradient id="linear-gradient-62" x1="829.92" y1="609.12" x2="568.18" y2="609.12" xlink:href="#linear-gradient"/><linearGradient id="linear-gradient-63" x1="832.64" y1="616.04" x2="574.7" y2="616.04" xlink:href="#linear-gradient"/><linearGradient id="linear-gradient-64" x1="834.14" y1="623.83" x2="581.22" y2="623.83" xlink:href="#linear-gradient"/><linearGradient id="linear-gradient-65" x1="833.89" y1="633.13" x2="587.74" y2="633.13" xlink:href="#linear-gradient"/><linearGradient id="linear-gradient-66" x1="827.78" y1="647.04" x2="594.26" y2="647.04" xlink:href="#linear-gradient"/></defs><title>experiences-scrolling-design</title><g id="Layer_2" data-name="Layer 2"><g id="BACKGROUND"><path class="cls-1" d="M176.3,339.81,0,621.36l.65.41,181.5-289.86A62.84,62.84,0,0,0,176.3,339.81Z"/><path class="cls-2" d="M194,321.34,4.42,624.13l1.3.81L197,319.41C196,320,195,320.67,194,321.34Z"/><path class="cls-3" d="M204.76,315.44,9.48,627.3l1.3.81,196.4-313.65C206.37,314.77,205.56,315.1,204.76,315.44Z"/><path class="cls-4" d="M213.73,312.38,14.55,630.47l1.3.81,200-319.42C215.15,312,214.44,312.2,213.73,312.38Z"/><path class="cls-5" d="M221.75,310.84,19.62,633.64l1.29.82L223.68,310.63C223,310.69,222.39,310.76,221.75,310.84Z"/><path class="cls-6" d="M229.1,310.36,24.68,636.82l1.3.81L230.9,310.37Z"/><path class="cls-7" d="M236,310.68,29.75,640l1.3.81L237.63,310.88Z"/><path class="cls-8" d="M242.38,311.68,34.82,643.16l1.29.81L244,312C243.43,311.92,242.91,311.79,242.38,311.68Z"/><path class="cls-9" d="M248.44,313.26,39.88,646.33l1.3.81L249.92,313.78C249.43,313.61,248.94,313.42,248.44,313.26Z"/><path class="cls-10" d="M254.16,315.4,45,649.5l1.3.82L255.56,316C255.09,315.82,254.63,315.6,254.16,315.4Z"/><path class="cls-11" d="M259.56,318,50,652.68l1.3.81,209.58-334.7Z"/><path class="cls-12" d="M264.66,321.15,55.08,655.85l1.3.81L265.92,322C265.51,321.72,265.08,321.44,264.66,321.15Z"/><path class="cls-13" d="M269.46,324.74,60.15,659l1.29.81,209.21-334.1C270.27,325.39,269.86,325.07,269.46,324.74Z"/><path class="cls-14" d="M274,328.83,65.21,662.19l1.3.82L275.07,329.94C274.71,329.56,274.33,329.2,274,328.83Z"/><path class="cls-15" d="M278.12,333.44,70.28,665.37l1.3.81L279.14,334.69C278.81,334.27,278.47,333.86,278.12,333.44Z"/><path class="cls-16" d="M281.93,338.62,75.35,668.54l1.29.81,206.21-329.3C282.55,339.57,282.24,339.1,281.93,338.62Z"/><path class="cls-17" d="M285.33,344.45,80.41,671.71l1.3.81L286.12,346.07C285.87,345.53,285.61,345,285.33,344.45Z"/><path class="cls-18" d="M288.25,351.06,85.48,674.88l1.3.82L288.91,352.89Q288.59,352,288.25,351.06Z"/><path class="cls-19" d="M290.56,358.63l-200,319.43,1.29.81L291,360.78C290.87,360.06,290.73,359.35,290.56,358.63Z"/><path class="cls-20" d="M292,367.58,95.61,681.23l1.3.81L292.18,370.19C292.14,369.31,292.09,368.44,292,367.58Z"/><path class="cls-21" d="M292,378.87,100.68,684.4l1.3.81L291.57,382.43C291.75,381.25,291.88,380.06,292,378.87Z"/><path class="cls-22" d="M287.24,397.72,105.74,687.57l.65.41,176.3-281.55A63.46,63.46,0,0,0,287.24,397.72Z"/><path class="cls-23" d="M199.17,211.33l107-170.89-.4-.25L195.62,216.12A37.83,37.83,0,0,0,199.17,211.33Z"/><path class="cls-24" d="M188.42,222.54,303.5,38.76l-.79-.5L186.59,223.71Q187.52,223.16,188.42,222.54Z"/><path class="cls-25" d="M181.9,226.12,300.42,36.83l-.79-.49L180.43,226.72Q181.16,226.44,181.9,226.12Z"/><path class="cls-26" d="M176.45,228,297.35,34.91l-.79-.5L175.16,228.29C175.59,228.2,176,228.09,176.45,228Z"/><path class="cls-27" d="M171.58,228.91,294.27,33l-.79-.49L170.41,229Z"/><path class="cls-28" d="M167.12,229.2,291.2,31.06l-.79-.5L166,229.2C166.39,229.21,166.76,229.2,167.12,229.2Z"/><path class="cls-29" d="M163,229,288.12,29.13l-.79-.49L161.94,228.89Z"/><path class="cls-30" d="M159.06,228.41l126-201.21-.79-.49L158.1,228.18Z"/><path class="cls-31" d="M155.38,227.44,282,25.28l-.79-.49L154.48,227.13C154.78,227.23,155.08,227.35,155.38,227.44Z"/><path class="cls-32" d="M151.91,226.15l127-202.8-.79-.49-127,202.9Z"/><path class="cls-33" d="M148.63,224.55,275.82,21.43l-.79-.5L147.82,224.09Z"/><path class="cls-34" d="M145.54,222.66,272.75,19.5,272,19,144.77,222.13Z"/><path class="cls-35" d="M142.62,220.48,269.67,17.58l-.79-.5-127,202.8Z"/><path class="cls-36" d="M139.89,218,266.6,15.65l-.79-.49L139.22,217.32Z"/><path class="cls-37" d="M137.37,215.2,263.52,13.73l-.79-.5-126,201.2C137,214.69,137.16,214.94,137.37,215.2Z"/><path class="cls-38" d="M135.06,212.05,260.45,11.8l-.79-.49L134.5,211.19C134.68,211.48,134.87,211.76,135.06,212.05Z"/><path class="cls-39" d="M133,208.51,257.37,9.87l-.79-.49L132.51,207.53C132.67,207.86,132.82,208.19,133,208.51Z"/><path class="cls-40" d="M131.22,204.5,254.3,8l-.79-.49L130.82,203.39C131,203.76,131.08,204.13,131.22,204.5Z"/><path class="cls-41" d="M129.82,199.9,251.22,6l-.79-.49L129.54,198.6C129.63,199,129.72,199.47,129.82,199.9Z"/><path class="cls-42" d="M128.94,194.47,248.15,4.1l-.79-.5L128.83,192.89C128.86,193.42,128.89,194,128.94,194.47Z"/><path class="cls-43" d="M129,187.62,245.07,2.17l-.79-.49L129.2,185.46C129.1,186.18,129,186.9,129,187.62Z"/><path class="cls-44" d="M131.83,176.18,242,.25,241.6,0l-107,170.89A39.22,39.22,0,0,0,131.83,176.18Z"/><g class="cls-45"><path class="cls-46" d="M685,385.8,458.2,748.06l.84.52L692.56,375.64A80.92,80.92,0,0,0,685,385.8Z"/><path class="cls-47" d="M707.83,362,463.89,751.61l1.67,1L711.71,359.55C710.4,360.34,709.1,361.17,707.83,362Z"/><path class="cls-48" d="M721.65,354.45,470.4,755.7l1.67,1,252.7-403.56C723.72,353.58,722.69,354,721.65,354.45Z"/><path class="cls-49" d="M733.19,350.51,476.92,759.78l1.67,1,257.35-411C735,350,734.11,350.28,733.19,350.51Z"/><path class="cls-50" d="M743.51,348.53,483.44,763.86l1.67,1L746,348.26C745.17,348.34,744.34,348.42,743.51,348.53Z"/><path class="cls-51" d="M753,347.91l-263,420,1.67,1L755.29,347.92C754.52,347.9,753.74,347.91,753,347.91Z"/><path class="cls-52" d="M761.79,348.32,496.48,772l1.67,1.05L764,348.58Z"/><path class="cls-53" d="M770.06,349.6,503,776.11l1.67,1L772.09,350.07C771.41,349.91,770.74,349.74,770.06,349.6Z"/><path class="cls-54" d="M777.86,351.65,509.52,780.19l1.67,1L779.77,352.3C779.13,352.08,778.5,351.85,777.86,351.65Z"/><path class="cls-55" d="M785.21,354.39,516,784.27l1.67,1L787,355.21C786.42,354.94,785.82,354.65,785.21,354.39Z"/><path class="cls-56" d="M792.16,357.78,522.55,788.35l1.67,1L793.88,358.75C793.31,358.42,792.74,358.09,792.16,357.78Z"/><path class="cls-57" d="M798.73,361.79,529.07,792.43l1.67,1.05L800.35,362.91C799.82,362.53,799.27,362.16,798.73,361.79Z"/><path class="cls-58" d="M804.91,366.41,535.59,796.51l1.67,1L806.44,367.68C805.94,367.25,805.42,366.83,804.91,366.41Z"/><path class="cls-59" d="M810.69,371.67,542.11,800.6l1.67,1L812.12,373.1C811.66,372.61,811.17,372.14,810.69,371.67Z"/><path class="cls-60" d="M816.05,377.6,548.63,804.68l1.67,1,267.06-426.5C816.94,378.67,816.49,378.14,816.05,377.6Z"/><path class="cls-61" d="M821,384.27,555.15,808.76l1.67,1,265.3-423.7C821.74,385.49,821.34,384.88,821,384.27Z"/><path class="cls-62" d="M825.32,391.77,561.66,812.84l1.67,1,263-420C826,393.16,825.68,392.46,825.32,391.77Z"/><path class="cls-63" d="M829.07,400.28,568.18,816.92l1.67,1.05L829.92,402.63C829.65,401.84,829.37,401.06,829.07,400.28Z"/><path class="cls-64" d="M832.05,410,574.7,821l1.67,1L832.64,412.78C832.46,411.86,832.27,410.94,832.05,410Z"/><path class="cls-65" d="M833.92,421.53,581.22,825.09l1.67,1L834.14,424.88C834.09,423.76,834,422.64,833.92,421.53Z"/><path class="cls-66" d="M833.89,436.06,587.74,829.17l1.67,1L833.35,440.64C833.58,439.11,833.75,437.59,833.89,436.06Z"/><path class="cls-67" d="M827.78,460.31,594.26,833.25l.83.52L821.93,471.51A81.34,81.34,0,0,0,827.78,460.31Z"/></g></g></g></svg>