<svg xmlns="http://www.w3.org/2000/svg" viewBox="0 0 214.68 214.68"><defs><style>.cls-1{fill:#2a363b;}</style></defs><title>Asset 1</title><g id="Layer_2" data-name="Layer 2"><g id="OBJECTS"><path class="cls-1" d="M182.35,7.75,7.75,182.35a4.54,4.54,0,0,1-6.42,0h0a4.56,4.56,0,0,1,0-6.43L175.92,1.33a4.56,4.56,0,0,1,6.43,0h0A4.54,4.54,0,0,1,182.35,7.75Z"/><path class="cls-1" d="M197.85,23.25,23.25,197.85a4.54,4.54,0,0,1-6.42,0h0a4.56,4.56,0,0,1,0-6.43L191.42,16.83a4.56,4.56,0,0,1,6.43,0h0A4.54,4.54,0,0,1,197.85,23.25Z"/><path class="cls-1" d="M213.34,38.75,38.75,213.34a4.53,4.53,0,0,1-6.42,0h0a4.53,4.53,0,0,1,0-6.42L206.92,32.33a4.53,4.53,0,0,1,6.42,0h0A4.53,4.53,0,0,1,213.34,38.75Z"/></g></g></svg>